<svg width="38" height="30" viewBox="0 0 38 30" fill="none" xmlns="http://www.w3.org/2000/svg">
<path fill-rule="evenodd" clip-rule="evenodd" d="M34.0001 3.33333C35.841 3.33333 37.3334 4.82572 37.3334 6.66667V26.6667C37.3334 28.5076 35.841 30 34.0001 30H4.00008C2.15913 30 0.666748 28.5076 0.666748 26.6667V3.33333C0.666748 1.49238 2.15913 0 4.00008 0H14.0001C15.8668 0 17.055 0.792419 18.2484 2.29809C18.2814 2.33975 18.3619 2.44344 18.451 2.55828L18.4511 2.5584C18.5768 2.72047 18.7198 2.9047 18.7709 2.96803C18.8226 3.03209 18.8661 3.08507 18.9021 3.12886C19.0487 3.30714 19.0699 3.33297 19.0031 3.33333H34.0001ZM34.0001 10V6.66667L18.9912 6.66664C17.7942 6.66023 17.0146 6.09985 16.1765 5.0609C16.1005 4.96676 15.916 4.7289 15.782 4.55621L15.7819 4.55605C15.7119 4.46578 15.6557 4.39334 15.6361 4.3686C15.0118 3.58095 14.6405 3.33333 14.0001 3.33333H4.00008V10H34.0001ZM34.0001 13.3333H4.00008V26.6667H34.0001V13.3333Z" fill="#666666"/>
</svg>
