<svg width="38" height="38" viewBox="0 0 38 38" fill="none" xmlns="http://www.w3.org/2000/svg">
<path fill-rule="evenodd" clip-rule="evenodd" d="M0.666748 19C0.666748 29.1252 8.87486 37.3333 19.0001 37.3333C29.1253 37.3333 37.3334 29.1252 37.3334 19C37.3334 8.87477 29.1253 0.666656 19.0001 0.666656C8.87486 0.666656 0.666748 8.87477 0.666748 19ZM34.0001 19C34.0001 27.2843 27.2844 34 19.0001 34C10.7158 34 4.00008 27.2843 4.00008 19C4.00008 10.7157 10.7158 3.99999 19.0001 3.99999C27.2844 3.99999 34.0001 10.7157 34.0001 19ZM19.0006 27.3306C19.9214 27.3306 20.6678 26.5844 20.6678 25.6639C20.6678 24.7434 19.9214 23.9972 19.0006 23.9972C18.0799 23.9972 17.3334 24.7434 17.3334 25.6639C17.3334 26.5844 18.0799 27.3306 19.0006 27.3306ZM17.3334 22.3333H20.6667C20.6667 21.0027 20.8758 20.7589 22.2454 20.074C24.6258 18.8839 25.6667 17.6694 25.6667 14.8333C25.6667 11.201 22.8073 8.99999 19.0001 8.99999C15.3182 8.99999 12.3334 11.9848 12.3334 15.6667H15.6667C15.6667 13.8257 17.1591 12.3333 19.0001 12.3333C21.1287 12.3333 22.3334 13.2607 22.3334 14.8333C22.3334 16.1639 22.1244 16.4078 20.7547 17.0926C18.3744 18.2828 17.3334 19.4972 17.3334 22.3333Z" fill="#666666"/>
</svg>
