<svg width="38" height="38" viewBox="0 0 38 38" fill="none" xmlns="http://www.w3.org/2000/svg">
<path fill-rule="evenodd" clip-rule="evenodd" d="M30.0937 33.8284L33.789 30.1331L32.4875 25.405L33.0545 24.0508L37.3334 21.6364V16.4107L33.0667 13.9862L32.5092 12.6344L33.827 7.90392L30.1291 4.21138L25.4006 5.51246L24.0494 4.94596L21.6348 0.666664H16.4091L13.9846 4.9334L12.6332 5.49077L7.90338 4.17134L4.21125 7.86348L5.51255 12.5928L4.94604 13.9439L0.666748 16.3586V21.5827L4.92964 24.0126L5.48762 25.3655L4.17003 30.0953L7.86356 33.7888L12.5929 32.4875L13.9441 33.0541L16.3589 37.3316H21.5831L24.0113 33.0686L25.3639 32.5108L30.0937 33.8284ZM30.4212 21.7093L28.9682 25.1796L30.0604 29.1476L29.1131 30.0949L25.1535 28.9919L21.6817 30.4237L19.6456 33.9983H18.3049L16.2858 30.4214L12.8193 28.968L8.84919 30.0604L7.90346 29.1147L9.0065 25.1551L7.57478 21.6836L4.00008 19.6459V18.3051L7.57858 16.2858L9.03207 12.8193L7.93967 8.84911L8.88343 7.90534L12.843 9.00991L16.316 7.57758L18.3489 4H19.6883L21.7075 7.5785L25.1741 9.03199L29.145 7.93937L30.0931 8.8861L28.9903 12.8449L30.4225 16.3176L34.0001 18.3505V19.6899L30.4212 21.7093ZM19.0001 25.6667C15.3182 25.6667 12.3334 22.6819 12.3334 19C12.3334 15.3181 15.3182 12.3333 19.0001 12.3333C22.682 12.3333 25.6667 15.3181 25.6667 19C25.6667 22.6819 22.682 25.6667 19.0001 25.6667ZM22.3334 19C22.3334 20.8409 20.841 22.3333 19.0001 22.3333C17.1591 22.3333 15.6667 20.8409 15.6667 19C15.6667 17.159 17.1591 15.6667 19.0001 15.6667C20.841 15.6667 22.3334 17.159 22.3334 19Z" fill="#666666"/>
</svg>
