<svg width="38" height="38" viewBox="0 0 38 38" fill="none" xmlns="http://www.w3.org/2000/svg">
<path fill-rule="evenodd" clip-rule="evenodd" d="M19.0001 37.3333C8.87486 37.3333 0.666748 29.1252 0.666748 19C0.666748 8.87478 8.87486 0.666672 19.0001 0.666672C29.1253 0.666672 37.3334 8.87478 37.3334 19C37.3334 29.1252 29.1253 37.3333 19.0001 37.3333ZM19.0001 34C27.2844 34 34.0001 27.2843 34.0001 19C34.0001 10.7157 27.2844 4.00001 19.0001 4.00001C10.7158 4.00001 4.00008 10.7157 4.00008 19C4.00008 27.2843 10.7158 34 19.0001 34ZM27.3334 17.3333H20.6667V10.6667H17.3334V17.3333H10.6667V20.6667H17.3334V27.3333H20.6667V20.6667H27.3334V17.3333Z" fill="#666666"/>
</svg>
