<svg width="26" height="27" viewBox="0 0 26 27" fill="none" xmlns="http://www.w3.org/2000/svg">
<path fill-rule="evenodd" clip-rule="evenodd" d="M21.75 10.7424C21.75 5.97598 18.952 2.66776 15.3317 1.6746C15.2006 1.35597 14.9935 1.05975 14.7119 0.8112C13.7497 -0.0380594 12.2503 -0.0380594 11.2881 0.8112C11.0072 1.05921 10.8003 1.35467 10.6691 1.6725C7.04419 2.66134 4.25 5.96232 4.25 10.7424C4.25 13.8353 3.58623 15.5683 2.35745 16.8242C2.15201 17.0342 1.59541 17.5152 1.21836 17.841L1.21833 17.8411L1.21832 17.8411C1.03993 17.9952 0.901742 18.1146 0.859956 18.1542L0.5 18.4971V22.5014H8.10997C8.3673 23.7485 9.08762 24.5828 10.3902 25.3296C11.9927 26.2482 14.0073 26.2482 15.6098 25.3296C16.7594 24.6706 17.5302 23.6578 17.8429 22.5014H25.5V18.4971L25.14 18.1542C25.1021 18.1181 24.9696 18.0032 24.7963 17.853L24.7962 17.853L24.7961 17.8529C24.4202 17.5271 23.8528 17.0354 23.6442 16.8214C22.4146 15.5596 21.75 13.8244 21.75 10.7424ZM15.1709 22.5014H10.7233C10.8999 22.81 11.2009 23.0431 11.6925 23.3249C12.4953 23.7851 13.5047 23.7851 14.3075 23.3249C14.6792 23.1118 14.9697 22.8298 15.1709 22.5014ZM21.8002 18.4072C22.0633 18.6771 22.627 19.1705 23 19.4928V20.1529H3V19.4933C3.37009 19.1748 3.93554 18.6818 4.19811 18.4134C5.86778 16.7069 6.75 14.4035 6.75 10.7424C6.75 6.30368 9.66596 3.71152 13 3.71152C16.3246 3.71152 19.25 6.31706 19.25 10.7424C19.25 14.3917 20.1325 16.6959 21.8002 18.4072Z" fill="#666666"/>
</svg>
