<svg width="14" height="14" viewBox="0 0 14 14" fill="none" xmlns="http://www.w3.org/2000/svg">
<path fill-rule="evenodd" clip-rule="evenodd" d="M1.66665 0.333344H12.3333C13.0697 0.333344 13.6666 0.930297 13.6666 1.66668V12.3333C13.6666 13.0697 13.0697 13.6667 12.3333 13.6667H1.66665C0.930267 13.6667 0.333313 13.0697 0.333313 12.3333V1.66668C0.333313 0.930297 0.930267 0.333344 1.66665 0.333344ZM1.66665 1.66668V9.39052L4.33331 6.72386L6.66665 9.05719L11 4.72386L12.3333 6.05719V1.66668H1.66665ZM1.66665 12.3333V11.2761L4.33331 8.60948L8.05718 12.3333H1.66665ZM12.3333 12.3333H9.9428L7.60945 10L11 6.60948L12.3333 7.94281V12.3333ZM8.33331 4.33334C8.33331 3.22877 7.43788 2.33334 6.33331 2.33334C5.22874 2.33334 4.33331 3.22877 4.33331 4.33334C4.33331 5.43791 5.22874 6.33334 6.33331 6.33334C7.43788 6.33334 8.33331 5.43791 8.33331 4.33334ZM5.66665 4.33334C5.66665 3.96515 5.96512 3.66668 6.33331 3.66668C6.7015 3.66668 6.99998 3.96515 6.99998 4.33334C6.99998 4.70153 6.7015 5.00001 6.33331 5.00001C5.96512 5.00001 5.66665 4.70153 5.66665 4.33334Z" fill="#666666"/>
</svg>
