<svg width="14" height="14" viewBox="0 0 14 14" fill="none" xmlns="http://www.w3.org/2000/svg">
<path fill-rule="evenodd" clip-rule="evenodd" d="M13.6666 12.3333V7.66668H12.3333V12.3333H1.66665V1.66668H6.33331V0.333344H1.66665C0.930267 0.333344 0.333313 0.930297 0.333313 1.66668V12.3333C0.333313 13.0697 0.930267 13.6667 1.66665 13.6667H12.3333C13.0697 13.6667 13.6666 13.0697 13.6666 12.3333ZM11.7854 0.815625C11.4798 0.507623 11.0614 0.333344 10.6249 0.333344C10.1889 0.333344 9.77091 0.50723 9.46357 0.816429L3.88431 6.39562C3.38576 6.8349 3.05894 7.48857 3.00214 8.19154L2.99998 10.3349V11.0016H5.75638C6.51258 10.9497 7.17266 10.6197 7.63832 10.0825L13.186 4.53723C13.4938 4.22945 13.6667 3.812 13.6667 3.37673C13.6667 2.94146 13.4938 2.52401 13.186 2.21622L11.7854 0.815625ZM5.7093 9.66989C6.06545 9.64468 6.39697 9.47893 6.66318 9.17443L10.7044 5.13316L8.86825 3.29685L4.79738 7.3664C4.52728 7.60529 4.36019 7.9395 4.33331 8.24523V9.66864L5.7093 9.66989ZM9.81122 2.3542L11.6473 4.19035L12.2432 3.59442C12.3009 3.53669 12.3333 3.45838 12.3333 3.37673C12.3333 3.29508 12.3009 3.21677 12.2432 3.15903L10.8407 1.75658C10.7836 1.69904 10.7059 1.66668 10.6249 1.66668C10.5438 1.66668 10.4661 1.69904 10.409 1.75658L9.81122 2.3542Z" fill="#666666"/>
</svg>
