<svg width="18" height="18" viewBox="0 0 18 18" fill="none" xmlns="http://www.w3.org/2000/svg">
<path fill-rule="evenodd" clip-rule="evenodd" d="M0.75 9C0.75 13.5563 4.44365 17.25 9 17.25C13.5563 17.25 17.25 13.5563 17.25 9C17.25 4.44365 13.5563 0.75 9 0.75C4.44365 0.75 0.75 4.44365 0.75 9ZM15.75 9C15.75 12.7279 12.7279 15.75 9 15.75C5.27208 15.75 2.25 12.7279 2.25 9C2.25 5.27208 5.27208 2.25 9 2.25C12.7279 2.25 15.75 5.27208 15.75 9ZM9.75271 10.4988H10.5022V11.9988H7.50222V10.4988H8.25222V8.99876H7.50222V7.49876H9.75271V10.4988ZM9.75049 5.99876C9.75049 6.41297 9.4146 6.74876 9.00025 6.74876C8.5859 6.74876 8.25 6.41297 8.25 5.99876C8.25 5.58454 8.5859 5.24876 9.00025 5.24876C9.4146 5.24876 9.75049 5.58454 9.75049 5.99876Z" fill="#666666"/>
</svg>
