<svg width="24" height="28" viewBox="0 0 24 28" fill="none" xmlns="http://www.w3.org/2000/svg">
<path fill-rule="evenodd" clip-rule="evenodd" d="M19.5584 4.1145L19.7111 1.85528L21.6267 1.98471L21.2419 7.68H15.8689V5.76H18.4701C16.8591 3.95827 14.5383 2.88 12.0289 2.88C8.90806 2.88 6.07883 4.54772 4.54417 7.2007L2.8822 6.2393C4.75665 2.99895 8.21565 0.959999 12.0289 0.959999C14.9216 0.959999 17.6105 2.13338 19.5584 4.1145Z" fill="white"/>
<path fill-rule="evenodd" clip-rule="evenodd" d="M6.27374 9.6H20.16C21.2203 9.6 22.08 10.4596 22.08 11.52V21.12C22.08 22.1804 21.2203 23.04 20.16 23.04H6.27374C5.63178 23.04 5.0323 22.7192 4.6762 22.185L1.12119 16.8525C0.906217 16.53 0.906217 16.11 1.12119 15.7875L4.6762 10.455C5.0323 9.92083 5.63178 9.6 6.27374 9.6ZM3.07374 16.32L6.27374 21.12H20.16V11.52H6.27374L3.07374 16.32ZM7.67996 16.32C7.67996 16.8502 7.25015 17.28 6.71996 17.28C6.18977 17.28 5.75996 16.8502 5.75996 16.32C5.75996 15.7898 6.18977 15.36 6.71996 15.36C7.25015 15.36 7.67996 15.7898 7.67996 16.32Z" fill="white"/>
</svg>
