<svg width="19" height="18" viewBox="0 0 19 18" fill="none" xmlns="http://www.w3.org/2000/svg">
<path fill-rule="evenodd" clip-rule="evenodd" d="M0.797283 9.23754L9.32076 0.714065C9.97163 0.0631909 11.0269 0.0631903 11.6778 0.714064L17.5703 6.60662C18.2212 7.2575 18.2212 8.31277 17.5703 8.96364L9.04686 17.4871C8.65282 17.8812 8.08793 18.0522 7.54149 17.9429L2.08626 16.8519C1.75638 16.7859 1.49852 16.528 1.43254 16.1981L0.341493 10.7429C0.232206 10.1965 0.403244 9.63158 0.797283 9.23754ZM2.95788 15.3265L7.86834 16.3086L16.3918 7.78514L10.4993 1.89258L1.97579 10.4161L2.95788 15.3265ZM5.78522 12.4992C6.11066 12.8246 6.11066 13.3523 5.78522 13.6777C5.45979 14.0031 4.93215 14.0031 4.60671 13.6777C4.28128 13.3523 4.28128 12.8246 4.60671 12.4992C4.93215 12.1737 5.45979 12.1737 5.78522 12.4992Z" fill="white"/>
</svg>
