<svg width="18" height="17" viewBox="0 0 18 17" fill="none" xmlns="http://www.w3.org/2000/svg">
<path fill-rule="evenodd" clip-rule="evenodd" d="M7.43686 13.7744C3.80233 13.7744 0.855957 10.7896 0.855957 7.10774C0.855957 3.42584 3.80233 0.441071 7.43686 0.441071C11.0714 0.441071 14.0178 3.42584 14.0178 7.10774C14.0178 8.64833 13.5019 10.0669 12.6357 11.1958L17.0673 15.6851L15.9039 16.8637L11.4723 12.3743C10.3579 13.2518 8.95763 13.7744 7.43686 13.7744ZM12.3725 7.10774C12.3725 9.86916 10.1628 12.1077 7.43686 12.1077C4.71096 12.1077 2.50118 9.86916 2.50118 7.10774C2.50118 4.34631 4.71096 2.10774 7.43686 2.10774C10.1628 2.10774 12.3725 4.34631 12.3725 7.10774Z" fill="url(#paint0_linear)"/>
<defs>
<linearGradient id="paint0_linear" x1="8.96162" y1="0.441071" x2="8.96162" y2="16.8637" gradientUnits="userSpaceOnUse">
<stop stop-color="#FF3832"/>
<stop offset="1" stop-color="#FF492D"/>
</linearGradient>
</defs>
</svg>
