<svg width="22" height="23" viewBox="0 0 22 23" fill="none" xmlns="http://www.w3.org/2000/svg">
<path fill-rule="evenodd" clip-rule="evenodd" d="M11 22.9583C4.92487 22.9583 0 17.8283 0 11.5C0 5.17173 4.92487 0.0416565 11 0.0416565C17.0751 0.0416565 22 5.17173 22 11.5C22 17.8283 17.0751 22.9583 11 22.9583ZM11 20.875C15.9706 20.875 20 16.6777 20 11.5C20 6.32232 15.9706 2.12499 11 2.12499C6.02944 2.12499 2 6.32232 2 11.5C2 16.6777 6.02944 20.875 11 20.875ZM6 10.4583V12.5417H16V10.4583H6Z" fill="#666666"/>
</svg>
