<svg width="23" height="23" viewBox="0 0 23 23" fill="none" xmlns="http://www.w3.org/2000/svg">
<path fill-rule="evenodd" clip-rule="evenodd" d="M11.5 22.9583C5.1717 22.9583 0.041626 17.8283 0.041626 11.5C0.041626 5.17173 5.1717 0.0416565 11.5 0.0416565C17.8282 0.0416565 22.9583 5.17173 22.9583 11.5C22.9583 17.8283 17.8282 22.9583 11.5 22.9583ZM11.5 20.875C16.6776 20.875 20.875 16.6777 20.875 11.5C20.875 6.32232 16.6776 2.12499 11.5 2.12499C6.32229 2.12499 2.12496 6.32232 2.12496 11.5C2.12496 16.6777 6.32229 20.875 11.5 20.875ZM16.7083 10.4583H12.5416V6.29166H10.4583V10.4583H6.29163V12.5417H10.4583V16.7083H12.5416V12.5417H16.7083V10.4583Z" fill="#666666"/>
</svg>
